<svg width="20" height="20" viewBox="0 0 20 20" fill="none" xmlns="http://www.w3.org/2000/svg">
<path fill-rule="evenodd" clip-rule="evenodd" d="M9.74378 19.2698C14.9967 19.2698 19.297 14.9695 19.297 9.71655C19.297 4.46364 14.9967 0.16333 9.74378 0.16333C4.49087 0.16333 0.190552 4.46364 0.190552 9.71655C0.190552 14.9695 4.49087 19.2698 9.74378 19.2698Z" fill="white"/>
<path fill-rule="evenodd" clip-rule="evenodd" d="M15.5407 2.12302C17.827 3.86492 19.2695 6.61385 19.2695 9.7166C19.2695 14.9967 14.9964 19.2698 9.71627 19.2698C6.50464 19.2698 3.64684 17.664 1.90494 15.2145C3.51075 16.4392 5.52482 17.1741 7.7022 17.1741C12.9823 17.1741 17.2554 12.901 17.2554 7.62088C17.3099 5.5796 16.6566 3.67439 15.5407 2.12302Z" fill="#DADADA"/>
<path fill-rule="evenodd" clip-rule="evenodd" d="M17.9906 4.51805C17.3373 3.4838 16.4936 2.58563 15.5138 1.87798C15.1872 1.63303 14.8334 1.41529 14.4795 1.22477C13.4997 0.680429 12.411 0.299387 11.2407 0.108867C10.7508 0.0272155 10.2609 0 9.74375 0C9.38993 0 9.06332 0.0272163 8.73671 0.0544335C8.19237 0.108868 7.64802 0.217738 7.1309 0.353824C6.99481 0.381041 6.85873 0.435475 6.72264 0.48991C5.44343 0.898167 4.30031 1.57859 3.32049 2.42233C2.50398 3.12997 1.82355 3.97371 1.27921 4.92631C0.462691 6.3416 0 7.97463 0 9.71653C0 11.4584 0.462691 13.0915 1.27921 14.5067C1.82355 15.4593 2.50398 16.3031 3.32049 17.0107C4.30031 17.8817 5.44343 18.5349 6.72264 18.9431C6.85873 18.9976 6.99481 19.0248 7.1309 19.0792C7.64802 19.2153 8.19237 19.3242 8.73671 19.3786C9.06332 19.4058 9.41714 19.4331 9.74375 19.4331C10.2609 19.4331 10.7508 19.4058 11.2407 19.3242C12.411 19.1337 13.4997 18.7526 14.4795 18.2083C14.8334 18.0178 15.1872 17.7728 15.5138 17.5551C16.4936 16.8474 17.3373 15.922 17.9906 14.915C18.9432 13.4181 19.4875 11.6217 19.4875 9.71653C19.4875 7.81133 18.9432 6.015 17.9906 4.51805ZM14.4795 1.85077C14.8334 2.06851 15.1872 2.31346 15.5138 2.58563C15.7587 2.77615 16.0037 2.99389 16.2214 3.23884C16.412 3.42936 16.6297 3.6471 16.793 3.86484C16.7658 3.86484 16.7386 3.83762 16.7113 3.83762C16.3303 3.37493 15.922 2.99389 15.5138 2.66728C15.3777 2.55841 15.2416 2.44955 15.0783 2.34068C14.8878 2.20459 14.6701 2.09572 14.4795 1.98685C14.0713 1.76912 13.6086 1.60581 13.1459 1.46973C12.9826 1.30642 12.8193 1.14312 12.6016 1.00703C13.282 1.22477 13.908 1.49695 14.4795 1.85077ZM11.2407 2.04129C11.6489 1.76912 12.3294 1.57859 12.9826 1.55138C13.4997 1.68746 14.0168 1.87799 14.4795 2.12294C14.6428 2.23181 14.8334 2.31346 14.9967 2.44955C15.16 2.55841 15.3505 2.6945 15.5138 2.83058C16.0037 3.21162 16.4392 3.70153 16.9019 4.27309C17.2829 5.00796 17.3918 5.90613 17.174 6.53212C16.6297 6.69542 16.0581 6.83151 15.5138 6.9676C15.2144 7.04925 14.9422 7.10368 14.6428 7.18533C14.5884 7.1309 14.534 7.07646 14.4795 7.02203C13.6902 6.20551 12.6832 5.57952 11.6489 5.19848C11.5945 4.62692 11.5129 4.08258 11.404 3.53823C11.3496 3.34771 11.3223 3.15719 11.2407 2.96667C11.159 2.72172 11.0774 2.47676 10.9957 2.25903C11.0502 2.17737 11.1318 2.12294 11.2407 2.04129ZM8.73671 1.63303C9.55323 1.71468 10.2881 1.9052 10.8597 2.25903C11.023 2.64007 11.159 3.07554 11.2679 3.53823V3.56545C11.3768 4.08258 11.4584 4.65414 11.5129 5.19848C11.4312 5.2257 11.3496 5.28013 11.2679 5.33457C10.3697 5.82448 9.36271 6.61377 8.73671 7.26698C8.7095 7.2942 8.68228 7.32142 8.65506 7.37585C8.16515 7.23977 7.64803 7.10368 7.15812 7.02203C7.04925 6.99481 6.94038 6.99481 6.85873 6.9676L6.74986 6.94038C6.1783 6.83151 5.60674 6.77707 5.00796 6.72264C4.62692 5.87891 4.49083 4.98074 4.49083 4.05536C4.84466 3.53823 5.30735 3.07554 5.82448 2.6945C6.12387 2.47676 6.42325 2.25903 6.77708 2.06851C6.91316 1.98685 7.04925 1.93242 7.18534 1.85077C7.32142 1.76912 7.48472 1.71468 7.64803 1.66025C7.97463 1.5786 8.35567 1.60581 8.73671 1.63303ZM9.79818 10.9685C9.47158 11.5129 9.11775 12.03 8.73671 12.5471L8.70949 12.5743C8.32845 13.0915 7.9202 13.5814 7.51194 14.0713C7.37585 14.0713 7.23977 14.0713 7.1309 14.0713C6.99481 14.0713 6.85873 14.0713 6.72264 14.0441C5.77004 13.9896 4.84466 13.7447 4.00092 13.3909C3.72875 12.9282 3.51101 12.4655 3.32049 11.9756C3.26606 11.8395 3.21163 11.7034 3.18441 11.5673C2.99389 10.9685 2.8578 10.3697 2.74894 9.74375C2.91224 9.33549 3.10276 8.92723 3.32049 8.57341C3.78319 7.81133 4.32753 7.23977 4.92631 6.80429C5.52509 6.85873 6.12387 6.91316 6.69543 7.02203L6.77708 7.04924C6.88595 7.07646 6.99481 7.07647 7.10368 7.10368C7.56638 7.18533 8.05628 7.32142 8.51898 7.43029C8.57341 7.62081 8.65506 7.81133 8.70949 8.00185C9.06332 9.00888 9.41714 9.9887 9.79818 10.9685ZM3.26606 3.21163L3.32049 3.15719C4.2731 2.23181 5.41622 1.49695 6.72264 1.03425C6.85873 0.979819 6.99481 0.952602 7.1309 0.898167C7.2942 0.843733 7.4575 0.816516 7.62081 0.762082C7.43029 0.952602 7.37585 1.22477 7.37585 1.49694C7.2942 1.52416 7.21255 1.55138 7.1309 1.60581C6.99481 1.66025 6.85873 1.7419 6.72264 1.82355C6.3416 2.01407 6.015 2.25902 5.68839 2.50398C5.17127 2.91224 4.70857 3.40214 4.32753 3.91927C3.97371 4.00092 3.61988 4.08258 3.32049 4.21866C2.83059 4.40918 2.39511 4.70857 2.06851 5.06239C2.06851 4.98074 2.04129 4.92631 2.04129 4.84466C2.04129 4.81744 2.04129 4.79022 2.04129 4.73579C2.39511 4.19144 2.80337 3.67432 3.26606 3.21163ZM1.27921 6.1783C1.46973 5.74282 1.66025 5.33457 1.9052 4.92631C1.9052 5.00796 1.93242 5.11683 1.95964 5.19848L1.93242 5.25291C1.66025 5.60674 1.44251 6.06943 1.27921 6.55934C1.06147 7.21255 0.9526 7.92019 1.00703 8.54619C0.870949 8.70949 0.734863 8.8728 0.598777 9.09053C0.653211 8.0835 0.898166 7.10368 1.27921 6.1783ZM2.6945 15.5138C2.66729 15.5138 2.66728 15.4866 2.64006 15.4866C2.09572 14.8061 1.63303 14.0441 1.27921 13.2275C0.816514 12.1389 0.571562 10.9685 0.571562 9.71653C0.571562 9.63488 0.571562 9.55323 0.571562 9.47157C0.598779 9.38992 0.653212 9.30827 0.680429 9.25384C0.789298 9.06332 0.898167 8.90001 1.03425 8.76393C1.1159 8.84558 1.17034 8.92723 1.25199 8.98167C1.63303 9.30827 2.06851 9.55323 2.55842 9.74375C2.64007 10.397 2.80337 11.0502 2.99389 11.6489C3.07554 11.9211 3.18441 12.1661 3.29328 12.411C3.45658 12.8193 3.6471 13.2003 3.86484 13.5814C3.59267 14.289 3.40215 14.9967 3.45658 15.7587C3.40215 15.7587 3.34771 15.7587 3.29328 15.7315C3.10276 15.6771 2.88502 15.6227 2.6945 15.5138ZM6.72264 18.3716C5.44343 17.9089 4.2731 17.2013 3.32049 16.2487L3.26606 16.1942C3.12997 16.0581 2.99389 15.8948 2.8578 15.7587C3.02111 15.8132 3.15719 15.8676 3.32049 15.8948C3.37493 15.8948 3.45658 15.922 3.51102 15.922C3.86484 16.6841 5.47065 17.7728 6.53212 17.9633C6.58656 18.0994 6.64099 18.2355 6.72264 18.3716ZM13.663 18.0178C12.9009 18.3716 12.1116 18.6165 11.2679 18.7798C10.778 18.8615 10.2881 18.9159 9.77097 18.9159C9.41714 18.9159 9.09053 18.8887 8.76393 18.8615C8.21958 18.8071 7.67524 18.6982 7.15812 18.5349C7.10368 18.5349 7.07647 18.5077 7.02203 18.4805C6.88594 18.3716 6.80429 18.2083 6.74986 18.0178V17.9905C6.88594 17.9905 7.02203 17.9633 7.15812 17.9361C7.75689 17.8272 8.27402 17.6095 8.76393 17.2557C8.8728 17.174 8.98167 17.0924 9.06332 17.0107C9.49879 17.2013 10.1248 17.2829 10.8052 17.2557C10.9685 17.2557 11.1318 17.2557 11.2679 17.2285C11.8667 17.2012 12.4655 17.0924 13.0098 16.9291C13.2548 17.2285 13.4997 17.5279 13.8535 17.6912C13.7719 17.8 13.7175 17.9089 13.663 18.0178ZM14.4795 17.5551C14.289 17.6639 14.0985 17.7728 13.8808 17.8817C13.908 17.8272 13.9352 17.7456 13.9624 17.6912C14.1529 17.6639 14.3162 17.6095 14.4795 17.5551C14.5068 17.5279 14.534 17.5279 14.534 17.5006C14.534 17.5279 14.5068 17.5551 14.4795 17.5551ZM14.4795 15.3233C14.0713 15.922 13.6086 16.4119 13.2003 16.6841C12.6016 16.8746 11.9211 17.0107 11.2407 17.0652C11.0774 17.0652 10.9141 17.0924 10.778 17.0924C10.0976 17.0924 9.49879 17.0107 9.06332 16.8474C8.95445 16.7113 8.84558 16.548 8.73671 16.4119C8.27402 15.7587 7.89298 15.0239 7.64803 14.2074C8.02907 13.7719 8.38289 13.3092 8.73671 12.8737C8.79115 12.8193 8.84558 12.7376 8.8728 12.6832C9.25384 12.1661 9.60766 11.6762 9.90705 11.1318C10.3425 11.159 10.8052 11.1863 11.2407 11.1863C12.03 11.1863 12.8193 11.159 13.6086 11.0774C13.9352 11.4584 14.2346 11.8667 14.4795 12.3294C14.5068 12.3838 14.534 12.411 14.5612 12.4655C14.8061 12.9282 15.0239 13.4181 15.2144 13.9352C15.0511 14.3979 14.7789 14.8878 14.4795 15.3233ZM15.5138 13.908C15.4594 13.908 15.4049 13.908 15.3777 13.908C15.1872 13.3364 14.9694 12.8465 14.6973 12.3566C14.6428 12.2477 14.5612 12.1116 14.5068 12.0028C14.289 11.6489 14.0441 11.2951 13.7719 10.9957C14.0985 10.2881 14.3434 9.60766 14.5068 8.90001C14.6156 8.38289 14.6973 7.86576 14.7517 7.34864C15.0239 7.2942 15.2961 7.21255 15.541 7.15812C16.1126 7.02203 16.6569 6.88594 17.2285 6.72264C17.4734 6.88594 17.7728 7.23977 18.0178 7.67524C18.2355 8.0835 18.4532 8.57341 18.5893 9.14497C18.6438 9.9887 18.5621 10.7508 18.3716 11.4856C18.2899 11.8123 18.1539 12.1389 18.0178 12.4655C17.8817 12.7648 17.7184 13.0642 17.5551 13.3364C16.8474 13.663 16.167 13.8808 15.5138 13.908ZM17.3918 14.7517C17.5823 14.2618 17.6639 13.7991 17.6367 13.3636C17.7728 13.1731 17.8817 12.9826 17.9906 12.7648C18.2083 12.3566 18.3716 11.9211 18.4805 11.4856C18.671 10.8052 18.7526 10.0976 18.7254 9.33549C18.7798 9.28106 18.8615 9.17219 18.9159 9.06332C18.9432 9.28106 18.9432 9.49879 18.9432 9.71653C18.9432 11.159 18.6165 12.5199 18.0178 13.7447C17.8 14.0985 17.6095 14.4251 17.3918 14.7517Z" fill="black"/>
</svg>
