<svg width="146" height="126" viewBox="0 0 146 126" fill="none" xmlns="http://www.w3.org/2000/svg">
<path d="M90.2308 13.3376L6.6275 61.3834L49.5338 98.1246L134.068 49.7798L124.026 25.338L90.2308 13.3376Z" fill="#F2F2F2"/>
<path d="M71.665 93.0665C70.5968 93.7355 69.2797 93.7304 68.2159 93.0533L46.876 79.4701C46.355 79.1385 46.0358 78.5315 46.0377 77.8762C46.0396 77.221 46.3624 76.6162 46.8853 76.2882L87.4186 50.8616C88.7836 50.0053 90.4675 50.0104 91.8282 50.8749L115.26 65.7639L71.665 93.0665Z" fill="url(#paint0_linear_1_6545)"/>
<path fill-rule="evenodd" clip-rule="evenodd" d="M71.7707 93.2649C71.2174 93.6113 70.5897 93.7935 69.9508 93.7929C69.3034 93.7934 68.6676 93.6065 68.109 93.2514L46.7693 79.6679C46.1833 79.2951 45.8242 78.6125 45.8263 77.8756C45.8284 77.1387 46.1915 76.4586 46.7796 76.0898L87.3127 50.6632C88.7442 49.7675 90.5083 49.7728 91.9352 50.6771L115.681 65.7653L71.7707 93.2649ZM71.5593 92.8681L114.84 65.7627L91.7213 51.073C90.4259 50.2519 88.8242 50.247 87.5245 51.06L46.991 76.4866C46.5332 76.7738 46.2507 77.3032 46.2491 77.8769C46.2475 78.4505 46.527 78.9818 46.9832 79.272L68.3229 92.8555C69.3215 93.4893 70.5566 93.4941 71.5593 92.8681Z" fill="#314EB5"/>
<path d="M118.493 63.8791C115.435 64.7077 121.236 57.9031 118.517 56.1752L94.1389 40.6849C89.4594 37.7115 83.6686 37.6919 78.9721 40.6336L20.782 77.0811C19.5158 77.8741 18.7337 79.3376 18.7286 80.9237C18.7235 82.5097 19.4961 83.9791 20.7571 84.7818C20.7571 84.7818 17.905 76.2617 21.0346 72.82L31.7449 65.5806L82.7952 33.6498L88.8284 31.7007L94.95 32.4791L102.137 36.6116L126.306 52.2806C126.306 52.2806 128.717 61.1081 118.493 63.8791Z" fill="#CAD4F2"/>
<path d="M127.133 42.1106L121.808 48.8283L127.133 42.1106Z" fill="#808080"/>
<path d="M84.477 32.3249L78.2501 21.6115L84.477 32.3249Z" fill="#808080"/>
<path d="M100.341 22.1273L94.9502 32.479L100.341 22.1273Z" fill="#808080"/>
<path d="M114.327 33.4594L109.002 40.1773L114.327 33.4594Z" fill="#808080"/>
<path d="M69.3666 41.0645L61.2682 33.2009L69.3666 41.0645Z" fill="#808080"/>
<path d="M54.241 50.9381L46.1476 43.0678L54.241 50.9381Z" fill="#808080"/>
<path d="M37.3047 62.3255L29.2114 54.4553L37.3047 62.3255Z" fill="#808080"/>
<path d="M24.1646 69.3778L14.735 62.5907L24.1646 69.3778Z" fill="#808080"/>
<path d="M86.2803 51.5588L73.9497 38.7616L86.2803 51.5588Z" fill="#808080"/>
<path d="M105.153 39.123L93.0664 51.6708L105.153 39.123Z" fill="#808080"/>
<path d="M120.432 47.9484L108.345 60.4963L120.432 47.9484Z" fill="#808080"/>
<path d="M67.2214 63.6382L54.1139 51.1046L67.2214 63.6382L67.2214 63.6382Z" fill="#808080"/>
<path d="M48.5263 75.035L33.2558 63.8094L48.5263 75.035Z" fill="#808080"/>
<path fill-rule="evenodd" clip-rule="evenodd" d="M122.192 57.596L64.5729 93.6303C59.2771 96.9337 52.7558 96.9067 47.4835 93.5595L23.8183 78.4959C22.3626 77.5692 21.4708 75.873 21.4767 74.0421C21.4827 72.2112 22.3855 70.5218 23.8472 69.6064L82.0372 33.1589C86.9327 30.1004 92.9635 30.1207 97.8414 33.2122L122.22 48.7024C123.677 49.6284 124.57 51.3257 124.565 53.158C124.559 54.9902 123.655 56.6808 122.192 57.596ZM121.579 49.8897L97.2006 34.3994C92.7163 31.5571 87.172 31.5383 82.6714 34.3502L24.4814 70.7977C23.4107 71.4682 22.7494 72.7057 22.745 74.0468C22.7407 75.3879 23.394 76.6304 24.4603 77.3091L48.1255 92.3727C53.0043 95.4704 59.0391 95.4953 63.9396 92.4381L121.558 56.4042C122.63 55.7338 123.292 54.4955 123.296 53.1534C123.301 51.8113 122.646 50.5681 121.579 49.8897Z" fill="#6780ED"/>
<path fill-rule="evenodd" clip-rule="evenodd" d="M64.3619 92.4094C61.8445 93.982 58.9901 94.8088 56.0851 94.8068C53.1366 94.8088 50.2411 93.9572 47.6973 92.34L24.0325 77.2768C22.7064 76.4329 21.8939 74.8879 21.8992 73.2201C21.9046 71.5523 22.727 70.0134 24.0585 69.1796L81.6055 33.1349C86.7673 29.9105 93.1257 29.932 98.2688 33.1914L122.006 48.2745C123.334 49.118 124.147 50.664 124.142 52.3329C124.137 54.0017 123.313 55.5415 121.98 56.3751L64.3619 92.4094ZM98.055 33.5873C95.5787 32.0156 92.761 31.1881 89.892 31.1901C87.0574 31.1883 84.2724 31.996 81.8169 33.5322L24.2699 69.5768C23.0688 70.329 22.3269 71.7172 22.322 73.2217C22.3172 74.7262 23.0501 76.1201 24.2464 76.8813L47.9111 91.9441C52.9213 95.1251 59.1184 95.1509 64.1509 92.0117L121.769 55.9779C122.972 55.2258 123.714 53.8368 123.719 52.3313C123.724 50.8258 122.99 49.4313 121.792 48.6704L98.055 33.5873Z" fill="#3454BE"/>
<path fill-rule="evenodd" clip-rule="evenodd" d="M64.3621 94.1503C61.8446 95.7229 58.9901 96.5497 56.0849 96.5476C53.1366 96.5495 50.2413 95.6981 47.6975 94.0813L24.0327 79.0176C22.7066 78.1738 21.8941 76.6287 21.8995 74.961C21.9048 73.2933 22.7272 71.7544 24.0588 70.9206L82.2488 34.4731C87.0128 31.4968 92.8815 31.5167 97.6283 34.5251L122.007 50.0153C123.334 50.859 124.147 52.4049 124.142 54.0737C124.137 55.7426 123.313 57.2824 121.98 58.1159L64.3621 94.1503ZM123.719 54.0722C123.724 52.5667 122.99 51.1722 121.793 50.4112L97.4144 34.921C92.799 31.9954 87.0924 31.9761 82.4602 34.8704L24.2701 71.3179C23.069 72.07 22.3271 73.4582 22.3222 74.9627C22.3174 76.4671 23.0503 77.8609 24.2466 78.6222L47.9114 93.6854C52.9215 96.8667 59.1188 96.8923 64.1511 93.7526L121.77 57.7187C122.972 56.9667 123.715 55.5776 123.719 54.0722Z" fill="url(#paint1_linear_1_6545)"/>
<path d="M89.3552 51.5005L47.354 77.7731L67.0051 90.0857L109.002 63.8053L89.3552 51.5005Z" fill="url(#paint2_linear_1_6545)"/>
<path fill-rule="evenodd" clip-rule="evenodd" d="M68.5797 87.3249C68.5636 87.335 68.5454 87.3402 68.5268 87.3402C68.5083 87.3402 68.4901 87.335 68.474 87.3249L51.8662 76.919C51.8335 76.8985 51.8133 76.8606 51.8133 76.8197C51.8133 76.7787 51.8335 76.7408 51.8662 76.7204L87.7799 54.261C87.8127 54.2407 87.8529 54.2408 87.8856 54.2612L104.49 64.6603C104.523 64.6807 104.543 64.7186 104.543 64.7596C104.543 64.8005 104.523 64.8384 104.49 64.8589L68.5797 87.3249ZM68.5268 87.0929L104.226 64.7595L87.8328 54.4928L52.1304 76.8198L68.5268 87.0929Z" fill="white"/>
<path d="M87.8495 75.2828C87.8973 75.2827 87.9391 75.2478 87.9515 75.1978C87.9638 75.1477 87.9437 75.0949 87.9024 75.0689L71.2948 64.6629C71.2443 64.6313 71.1797 64.6501 71.1505 64.7048C71.1213 64.7596 71.1386 64.8297 71.1891 64.8614L87.7967 75.2673C87.8127 75.2774 87.8309 75.2828 87.8495 75.2828Z" fill="white"/>
<path fill-rule="evenodd" clip-rule="evenodd" d="M84.0215 72.5611C83.0015 73.1436 81.862 73.4365 80.7095 73.4125C79.5586 73.4378 78.4209 73.1435 77.4045 72.5575C76.5102 71.9966 76.0187 71.2439 76.0207 70.4387C76.0226 69.6245 76.5269 68.8645 77.4404 68.2984C79.2746 67.162 82.2429 67.1631 84.0572 68.3017C84.9517 68.8629 85.443 69.6155 85.4412 70.4208C85.4391 71.2348 84.935 71.9948 84.0215 72.5611ZM83.9515 68.5002C82.9677 67.9331 81.8665 67.6482 80.7526 67.6727V67.6727C79.6364 67.6495 78.533 67.9333 77.5453 68.4977C76.7003 69.0212 76.2338 69.7107 76.2321 70.4391C76.2303 71.1591 76.6842 71.8409 77.5101 72.3591C79.2667 73.4613 82.1403 73.4624 83.9166 72.3618C84.7616 71.8383 85.2279 71.1486 85.2298 70.4203C85.2314 69.7004 84.7775 69.0186 83.9515 68.5002Z" fill="white"/>
<path d="M66.5942 79.9057C66.6126 79.9058 66.6307 79.9005 66.6467 79.8905C67.0585 79.692 67.3384 79.2664 67.3774 78.7794C67.3424 78.2991 67.0693 77.8774 66.6646 77.6788C65.6166 77.1055 64.3801 77.1048 63.3316 77.677C63.2815 77.7087 63.2643 77.7783 63.293 77.8329C63.3218 77.8876 63.3857 77.9069 63.4364 77.8763C64.4185 77.3396 65.5771 77.3399 66.5589 77.8772C66.8962 78.0372 67.1281 78.3816 67.166 78.7787C67.1245 79.1827 66.8861 79.5314 66.5418 79.6917C66.5002 79.7175 66.4799 79.7704 66.4922 79.8206C66.5045 79.8708 66.5463 79.9057 66.5942 79.9058L66.5942 79.9057Z" fill="white"/>
<path d="M64.514 84.8259C64.5336 84.8259 64.5527 84.82 64.5693 84.8089L69.3468 81.6286C69.3785 81.6076 69.3977 81.57 69.3972 81.5296C69.3967 81.4892 69.3767 81.452 69.3446 81.4316L60.8672 76.1041C60.8342 76.0834 60.7935 76.0836 60.7606 76.1045L55.8698 79.2299C55.8372 79.2507 55.8173 79.2888 55.8176 79.3298C55.8179 79.3708 55.8384 79.4086 55.8713 79.4288C55.9042 79.449 55.9445 79.4487 55.9771 79.4279L60.8147 76.3361L69.0853 81.5337L64.4587 84.6136C64.4184 84.6405 64.3995 84.6931 64.4124 84.7424C64.4252 84.7918 64.4667 84.8258 64.514 84.8259L64.514 84.8259Z" fill="white"/>
<path d="M63.1179 83.9248C63.1375 83.9249 63.1566 83.919 63.1732 83.9078L66.3756 81.776C66.4074 81.7548 66.4265 81.7171 66.426 81.6767C66.4256 81.6364 66.4056 81.5992 66.3734 81.5789L60.6903 78.0077C60.6573 77.987 60.6166 77.9872 60.5837 78.0082L57.3051 80.1028C57.2725 80.1236 57.2526 80.1617 57.2529 80.2027C57.2533 80.2437 57.2737 80.2815 57.3066 80.3017C57.3395 80.3219 57.3799 80.3215 57.4125 80.3007L60.6378 78.2397L66.1139 81.681L63.0626 83.7125C63.0223 83.7394 63.0034 83.792 63.0163 83.8413C63.0291 83.8907 63.0706 83.9248 63.1179 83.9248L63.1179 83.9248Z" fill="white"/>
<path d="M95.2459 65.208C95.2642 65.208 95.2823 65.2028 95.2983 65.193L100.185 62.1632C100.218 62.1431 100.239 62.1052 100.239 62.064C100.24 62.0227 100.219 61.9844 100.187 61.9637C100.154 61.943 100.113 61.9431 100.08 61.9639L95.2461 64.9612L86.4906 59.4839L91.228 56.5072C91.2607 56.4867 91.2808 56.4488 91.2807 56.4078C91.2806 56.3668 91.2604 56.329 91.2276 56.3086C91.1949 56.2882 91.1546 56.2883 91.1219 56.3088L86.2263 59.3849C86.1937 59.4055 86.1737 59.4434 86.1737 59.4843C86.1737 59.5252 86.1939 59.5631 86.2265 59.5836L95.193 65.1928C95.2091 65.2027 95.2273 65.2079 95.2459 65.208Z" fill="white"/>
<path d="M95.2229 63.1313C95.2412 63.1313 95.2593 63.1261 95.2753 63.1163L98.4548 61.145C98.488 61.1249 98.5087 61.087 98.509 61.0458C98.5093 61.0045 98.4892 60.9662 98.4563 60.9455C98.4234 60.9248 98.3828 60.9249 98.3499 60.9457L95.2231 62.8845L89.6 59.3668L92.6272 57.4648C92.6777 57.433 92.6949 57.3628 92.6655 57.308C92.6362 57.2532 92.5715 57.2346 92.521 57.2664L89.3358 59.2678C89.3031 59.2884 89.2831 59.3263 89.2831 59.3672C89.2832 59.4081 89.3033 59.446 89.336 59.4665L95.17 63.116C95.1861 63.126 95.2043 63.1312 95.2229 63.1313Z" fill="white"/>
<path d="M90.9582 63.9179C91.5388 63.9299 92.1128 63.7824 92.6266 63.4891C92.6599 63.469 92.6806 63.4311 92.6809 63.3898C92.6812 63.3485 92.6611 63.3103 92.6282 63.2896C92.5953 63.2689 92.5546 63.269 92.5218 63.2898C91.5395 63.8262 90.381 63.8258 89.3991 63.2886C89.0617 63.1287 88.8297 62.7842 88.792 62.3869C88.8336 61.9831 89.072 61.6347 89.4162 61.4746C89.4494 61.4545 89.4702 61.4166 89.4705 61.3753C89.4708 61.3341 89.4507 61.2958 89.4177 61.2751C89.3848 61.2544 89.3442 61.2545 89.3114 61.2753C88.8996 61.4739 88.6198 61.8993 88.5806 62.3862C88.6154 62.8667 88.8886 63.2885 89.2934 63.487C89.8054 63.7822 90.3785 63.9305 90.9582 63.9179Z" fill="white"/>
<path d="M48.4268 80.4575L31.2643 88.5485L48.4268 80.4575Z" fill="#808080"/>
<path d="M141.446 51.2373L131.461 56.5858L120.298 49.5712L63.6612 84.9915C58.2186 88.3953 51.5103 88.3674 46.0918 84.9185L25.226 71.637L13.0667 79.2646L4.81009 76.2637L4.91266 92.9674L4.92416 92.9703C5.02487 97.8913 7.49345 102.396 11.4306 104.843L34.7893 119.543C46.7852 127.093 61.5865 127.11 73.5971 119.588L135.649 80.7258C139.207 78.5254 141.395 74.4152 141.373 69.9728L141.373 69.9727L141.446 51.2373Z" fill="url(#paint3_linear_1_6545)"/>
<path opacity="0.118629" d="M54.2285 120.386C61.0641 120.391 67.7807 118.445 73.7026 114.741L135.755 75.8797C139.717 73.4297 141.981 68.6823 141.536 63.7589L141.114 63.8006C141.544 68.5456 139.362 73.1211 135.543 75.4825L73.4912 114.345C61.5408 121.804 46.831 121.787 34.8951 114.3L11.5367 99.5997C7.04027 96.8231 4.5425 91.3686 5.21941 85.8044L4.79993 85.7489C4.10085 91.4956 6.68059 97.1289 11.3245 99.9966L34.6829 114.697C40.6222 118.428 47.365 120.391 54.2285 120.386Z" fill="black"/>
<path opacity="0.118629" d="M54.0217 116.83C60.8572 116.836 67.5738 114.89 73.4958 111.186L135.548 72.3243C139.51 69.8744 141.774 65.127 141.329 60.2036L140.908 60.2452C141.337 64.9902 139.155 69.5658 135.337 71.9271L73.2844 110.789C61.3339 118.248 46.6242 118.231 34.6883 110.745L11.3299 96.0446C6.83344 93.268 4.33566 87.8135 5.01257 82.2493L4.59309 82.1938C3.89401 87.9404 6.47374 93.5738 11.1176 96.4414L34.4761 111.142C40.4154 114.873 47.1582 116.835 54.0217 116.83Z" fill="black"/>
<path opacity="0.118629" d="M53.8149 113.275C60.6505 113.281 67.3671 111.334 73.289 107.631L135.341 68.769C139.303 66.3191 141.567 61.5716 141.122 56.6483L140.701 56.6899C141.13 61.4349 138.948 66.0105 135.13 68.3718L73.0777 107.234C61.1272 114.693 46.4174 114.676 34.4815 107.19L11.1231 92.4896C6.62672 89.7127 4.129 84.2581 4.80582 78.6938L4.38634 78.6385C3.68759 84.3852 6.26721 90.0184 10.9109 92.8864L34.2693 107.586C40.2086 111.318 46.9514 113.28 53.8149 113.275Z" fill="black"/>
<path d="M116.127 1.08044V26.7894L132.771 45.927V11.4986L116.127 1.08044Z" fill="white"/>
<path d="M132.771 11.5032V60.1484L134.49 59.0803V10.3948L132.771 11.5032Z" fill="#3352BF"/>
<path d="M116.127 1.08047L117.866 0L134.49 10.3947L132.771 11.5032L116.127 1.08047Z" fill="#1F72CE"/>
<path fill-rule="evenodd" clip-rule="evenodd" d="M145.872 50.1404V40.641L143.151 41.1075C142.208 39.8529 141.062 38.7953 139.769 37.9868L112.095 20.5979C99.2664 12.5367 83.4435 12.5305 70.6093 20.5814L6.98439 60.4935C5.1039 61.6625 3.50114 63.2919 2.30386 65.2517L-4.57764e-05 65.6466V73.7243L0.00296021 73.7238C0.0063324 79.1054 2.6629 84.074 6.96747 86.7496L31.9372 102.464C44.7605 110.534 60.5826 110.552 73.4215 102.511L139.753 60.969C143.366 58.7363 145.669 54.6488 145.853 50.1435L145.872 50.1404ZM99.8698 22.1748L125.22 38.2825C126.568 39.1392 127.394 40.7093 127.389 42.4043C127.383 44.0992 126.547 45.6631 125.193 46.5097L63.6612 84.9915C58.2186 88.3953 51.5103 88.3675 46.0918 84.9185L20.8193 68.8321C19.4726 67.9749 18.6476 66.4057 18.653 64.712C18.6585 63.0182 19.4936 61.4553 20.8458 60.6083L82.3017 22.1153C87.7418 18.7079 94.4494 18.7306 99.8698 22.1748Z" fill="black"/>
<path opacity="0.401111" fill-rule="evenodd" clip-rule="evenodd" d="M73.5094 95.3167L139.841 53.7746C143.625 51.4051 145.957 47.0273 145.96 42.2882C145.963 37.5492 143.637 33.1678 139.857 30.7924L112.183 13.4034C99.3543 5.34228 83.5314 5.33601 70.6972 13.387L7.07228 53.2991C-2.23276 59.1362 -2.24216 73.7039 7.05537 79.5552L32.0251 95.2693C44.8484 103.339 60.6705 103.357 73.5094 95.3167ZM99.7508 22.3181L125.101 38.4258C126.449 39.2825 127.275 40.8526 127.27 42.5475C127.264 44.2425 126.428 45.8064 125.074 46.6529L63.5423 85.1348C58.0996 88.5386 51.3913 88.5107 45.9728 85.0618L20.7004 68.9754C19.3536 68.1182 18.5286 66.549 18.534 64.8552C18.5395 63.1615 19.3747 61.5986 20.7269 60.7516L82.1828 22.2586C87.6228 18.8512 94.3305 18.8739 99.7508 22.3181Z" fill="#E6E6E6"/>
<path fill-rule="evenodd" clip-rule="evenodd" d="M73.4215 94.7149L139.753 53.1727C143.537 50.8032 145.869 46.4254 145.872 41.6864C145.875 36.9473 143.549 32.5659 139.769 30.1905L112.095 12.8015C99.2664 4.74041 83.4435 4.73414 70.6093 12.7851L6.98439 52.6972C-2.32065 58.5343 -2.33003 73.1021 6.96747 78.9533L31.9372 94.6675C44.7605 102.738 60.5826 102.756 73.4215 94.7149ZM99.8698 22.1748L125.22 38.2825C126.568 39.1392 127.394 40.7093 127.389 42.4043C127.383 44.0992 126.547 45.6631 125.193 46.5097L63.6612 84.9915C58.2186 88.3953 51.5103 88.3675 46.0918 84.9185L20.8193 68.8321C19.4726 67.9749 18.6476 66.4057 18.653 64.7119C18.6585 63.0182 19.4936 61.4553 20.8459 60.6083L82.3017 22.1153C87.7418 18.7079 94.4494 18.7306 99.8698 22.1748Z" fill="url(#paint4_linear_1_6545)"/>
<path opacity="0.173014" d="M93.7772 19.8191C93.9934 19.8563 94.2099 19.8908 94.425 19.9368L108.616 10.851C108.46 10.7728 108.302 10.6965 108.145 10.6206L93.7772 19.8191Z" fill="white"/>
<path opacity="0.173014" d="M105.523 25.7667L105.94 26.0318L119.418 17.4027L118.998 17.139L105.523 25.7667Z" fill="white"/>
<path opacity="0.173014" d="M129.614 23.8099L116.08 32.4748L116.497 32.7398L130.033 24.0736L129.614 23.8099Z" fill="white"/>
<path opacity="0.173014" d="M140.212 30.4915L126.374 39.3512C126.466 39.4704 126.553 39.5919 126.632 39.7185L140.608 30.7707C140.48 30.6746 140.346 30.5833 140.212 30.4915Z" fill="white"/>
<path opacity="0.173014" d="M19.6851 67.7879C19.5926 67.6692 19.5039 67.5487 19.424 67.4225L4.49508 76.9805L4.50094 76.9913C4.6071 77.0964 4.71765 77.1979 4.82755 77.3001L19.6851 67.7879Z" fill="white"/>
<path opacity="0.173014" d="M36.7556 97.2602L52.3093 87.3023C52.0931 87.2666 51.8772 87.2286 51.6622 87.1841L36.2762 97.0347C36.4361 97.1097 36.5951 97.1874 36.7556 97.2602Z" fill="white"/>
<path d="M15.1939 84.1302L29.9805 74.6637L29.5636 74.3981L14.7745 83.8665L15.1939 84.1302Z" fill="#F2F2F2"/>
<path opacity="0.173014" d="M40.5288 81.3777L40.1115 81.1121L25.3824 90.542L25.8018 90.8061L40.5288 81.3777Z" fill="white"/>
<path fill-rule="evenodd" clip-rule="evenodd" d="M65.4176 88.4491L129.172 48.521C131.287 47.1966 132.593 44.7523 132.601 42.1036C132.608 39.4549 131.317 37.0017 129.21 35.6629L102.166 18.479C95.5672 14.2858 87.4002 14.261 80.7795 18.4142L17.1088 58.355C14.9966 59.68 13.6927 62.1228 13.6849 64.7696C13.6772 67.4163 14.9668 69.868 17.0712 71.2075L44.0301 88.3673C50.6266 92.5661 58.794 92.5974 65.4176 88.4491ZM99.8697 22.1748L125.219 38.2825C126.568 39.1392 127.394 40.7093 127.389 42.4043C127.383 44.0992 126.547 45.6631 125.193 46.5097L63.6611 84.9915C58.2184 88.3953 51.5101 88.3675 46.0917 84.9185L20.8192 68.8321C19.4725 67.9749 18.6474 66.4057 18.6529 64.7119C18.6583 63.0182 19.4935 61.4553 20.8457 60.6083L82.3016 22.1153C87.7417 18.7079 94.4493 18.7306 99.8697 22.1748Z" fill="#B1FFE3"/>
<path d="M20.8457 62.4427L82.3016 23.9497C87.7417 20.5423 94.4493 20.565 99.8697 24.0092L125.219 40.1169C126.307 40.8003 127.067 41.9641 127.299 43.3043C127.668 41.32 126.832 39.3011 125.219 38.2825L99.8697 22.1748C94.4493 18.7306 87.7417 18.7078 82.3016 22.1152L20.8457 60.6083C19.2182 61.6218 18.371 63.6511 18.7423 65.6465C18.9762 64.2955 19.7452 63.1242 20.8457 62.4427Z" fill="#657DFE"/>
<path d="M10.0977 67.2916V109.51L26.7424 119.934V77.7098L10.0977 67.2916Z" fill="white"/>
<path d="M10.0995 67.2916L11.8388 66.2116L28.4636 76.6059L26.7442 77.7148L10.0995 67.2916Z" fill="#1F72CE"/>
<path d="M15.7908 42.8168V47.1731L19.2715 44.9896L15.7908 42.8168Z" fill="#CCCCCC"/>
<path d="M15.7907 44.1926L34.3024 55.0147L78.5883 27.1256L78.6145 26.5179L60.1768 16.3947L15.7907 44.1926Z" fill="#3453BE"/>
<path d="M15.7907 42.8168L34.2289 54.3158L78.6145 26.5179L60.1768 15.0189L15.7907 42.8168Z" fill="#046644"/>
<path d="M15.7907 42.8168L17.062 43.6106V46.3755L15.7907 47.1731V42.8168Z" fill="#3453BE"/>
<path d="M70.3902 77.5231L86.7986 88.3114L131.661 60.6882L114.769 50.2384L70.3902 77.5231Z" fill="#5A80DA"/>
<path d="M70.3902 77.1181L86.7986 87.3941L131.661 59.7709L114.769 49.3212L70.3902 77.1181Z" fill="url(#paint5_linear_1_6545)"/>
<path d="M86.7986 88.8837V116.14L131.661 87.9664V59.7709L86.7986 87.3941V88.8837Z" fill="black"/>
<path d="M85.2263 86.3893V95.6903L82.9539 97.1656V113.733L86.7986 116.14V95.6903V87.3941L85.2263 86.3893Z" fill="#5A80DA"/>
<path d="M28.4618 100.246V76.6059L26.7423 77.7143V119.939L28.4618 118.871L29.7986 118.019V101.094L28.4618 100.246Z" fill="#3352BF"/>
<path d="M95.1469 110.923L95.1443 99.3926L101.742 103.705V115.275L95.1469 110.923Z" fill="url(#paint6_linear_1_6545)"/>
<path d="M131.714 85.3134V96.3997L121.912 102.574L119.913 101.284L117.227 103.004V105.526L116.366 106.067L114.154 104.639L111.468 106.358V109.153L101.742 115.275V103.714L131.714 85.3134Z" fill="#3555BF"/>
<path d="M94.3162 99.914V100.909L101.859 105.932L133.475 86.0797V85.401L101.859 104.842L94.3162 99.914Z" fill="#768DDA"/>
<path d="M94.3162 99.914L101.859 105.221L133.475 85.401L125.64 80.283L94.3162 99.914Z" fill="white"/>
<path d="M119.758 93.9993L117.376 95.4252L119.758 93.9993Z" fill="#E6E6E6"/>
<path d="M122.837 101.992V93.6169L130.695 88.6622V97.0216L122.837 101.992Z" fill="#768DDA"/>
<path d="M102.672 114.727V106.352L110.53 101.397V109.756L102.672 114.727Z" fill="#768DDA"/>
<path d="M121.912 102.574V93.3413L118.428 95.5293V100.35L121.912 102.574Z" fill="#5A80DA"/>
<path d="M119.913 94.597V101.284L117.227 103.004V96.2837L119.913 94.597Z" fill="#2F4EB6"/>
<path d="M114.154 98.2383V104.639L111.468 106.358V99.925L114.154 98.2383Z" fill="#2F4EB6"/>
<path d="M116.366 106.067L114.154 104.639V98.1993L116.366 96.824V106.067Z" fill="#5A80DA"/>
<path d="M122.662 95.5417L131.004 90.3397L130.93 90.2012L122.588 95.4027L122.662 95.5417Z" fill="#E6E6E6"/>
<path d="M122.662 97.2293L131.004 92.0274L130.93 91.8884L122.588 97.0904L122.662 97.2293Z" fill="#E6E6E6"/>
<path d="M122.662 98.9165L131.004 93.7155L130.93 93.5765L122.588 98.778L122.662 98.9165Z" fill="#E6E6E6"/>
<path d="M122.662 100.604L131.004 95.4027L130.93 95.2642L122.588 100.465L122.662 100.604Z" fill="#E6E6E6"/>
<path d="M102.467 108.201L110.809 102.999L110.735 102.86L102.393 108.062L102.467 108.201Z" fill="#E6E6E6"/>
<path d="M102.467 109.888L110.809 104.686L110.735 104.548L102.393 109.75L102.467 109.888Z" fill="#E6E6E6"/>
<path d="M102.467 111.576L110.809 106.374L110.735 106.235L102.393 111.437L102.467 111.576Z" fill="#E6E6E6"/>
<path d="M102.467 113.264L110.809 108.062L110.735 107.923L102.393 113.125L102.467 113.264Z" fill="#E6E6E6"/>
<path d="M108.334 28.512V34.767C108.334 35.041 108.47 35.2941 108.689 35.4304L115.145 39.447C115.277 39.5294 115.44 39.5291 115.572 39.446C115.705 39.363 115.786 39.2099 115.786 39.0442V32.8896C115.786 32.6173 115.652 32.3654 115.435 32.2285L108.942 28.1331C108.817 28.0542 108.662 28.0538 108.537 28.1321C108.412 28.2103 108.334 28.3552 108.334 28.512Z" fill="#27419B"/>
<path d="M108.044 28.727V34.982C108.044 35.256 108.179 35.5091 108.398 35.6454L114.854 39.662C114.987 39.7444 115.15 39.744 115.282 39.661C115.414 39.578 115.495 39.4249 115.495 39.2592V33.1046C115.495 32.8322 115.362 32.5804 115.145 32.4435L108.651 28.348C108.526 28.2692 108.372 28.2688 108.246 28.347C108.121 28.4252 108.044 28.5701 108.044 28.727Z" fill="#27419B"/>
<defs>
<linearGradient id="paint0_linear_1_6545" x1="119.747" y1="59.3024" x2="106.786" y2="100.451" gradientUnits="userSpaceOnUse">
<stop stop-color="#A0A8FF"/>
<stop offset="1" stop-color="#FE9C67"/>
</linearGradient>
<linearGradient id="paint1_linear_1_6545" x1="13.4273" y1="99.1148" x2="19.0991" y2="28.7158" gradientUnits="userSpaceOnUse">
<stop stop-color="#7B92D8"/>
<stop offset="0.0766537" stop-color="#788FD8"/>
<stop offset="1" stop-color="#6780EE"/>
</linearGradient>
<linearGradient id="paint2_linear_1_6545" x1="121.868" y1="58.5281" x2="115.852" y2="96.1157" gradientUnits="userSpaceOnUse">
<stop stop-color="#2BB947"/>
<stop offset="1" stop-color="#2EAE40"/>
</linearGradient>
<linearGradient id="paint3_linear_1_6545" x1="50.9911" y1="33.3482" x2="116.874" y2="91.1596" gradientUnits="userSpaceOnUse">
<stop stop-color="white"/>
<stop offset="1" stop-color="#C1CBE4"/>
</linearGradient>
<linearGradient id="paint4_linear_1_6545" x1="-12.0874" y1="104.485" x2="-3.59567" y2="1.6111" gradientUnits="userSpaceOnUse">
<stop stop-color="#5BDEB0"/>
<stop offset="0.0766537" stop-color="#28C28B"/>
<stop offset="1" stop-color="#25C18A"/>
</linearGradient>
<linearGradient id="paint5_linear_1_6545" x1="60.6407" y1="51.5441" x2="117.186" y2="29.2606" gradientUnits="userSpaceOnUse">
<stop stop-color="#0B5F41"/>
<stop offset="1" stop-color="#006C47"/>
</linearGradient>
<linearGradient id="paint6_linear_1_6545" x1="95.1443" y1="99.3926" x2="101.742" y2="99.3926" gradientUnits="userSpaceOnUse">
<stop stop-color="#3453BE"/>
<stop offset="1" stop-color="#2946AA"/>
</linearGradient>
</defs>
</svg>
